<mxfile host="Electron" modified="2024-07-17T00:40:25.832Z" agent="Mozilla/5.0 (Windows NT 10.0; Win64; x64) AppleWebKit/537.36 (KHTML, like Gecko) draw.io/24.6.4 Chrome/124.0.6367.207 Electron/30.0.6 Safari/537.36" etag="cvQV-DsQL65DzVbUe-JS" version="24.6.4" type="device">
  <diagram name="PÃ¡gina-1" id="72mQJuVASjey0cWUTPmy">
    <mxGraphModel dx="880" dy="423" grid="1" gridSize="10" guides="1" tooltips="1" connect="1" arrows="1" fold="1" page="1" pageScale="1" pageWidth="827" pageHeight="1169" math="0" shadow="0">
      <root>
        <mxCell id="0" />
        <mxCell id="1" parent="0" />
        <mxCell id="0qIQiITKptPGIWKbQqsH-3" value="&lt;span style=&quot;color: rgb(19, 19, 0); font-family: &amp;quot;trebuchet ms&amp;quot;, verdana, arial, sans-serif; font-size: 16px; text-align: start; text-wrap: nowrap; background-color: rgb(255, 255, 255);&quot;&gt;iPhone&lt;/span&gt;" style="swimlane;fontStyle=1;align=center;verticalAlign=top;childLayout=stackLayout;horizontal=1;startSize=26;horizontalStack=0;resizeParent=1;resizeParentMax=0;resizeLast=0;collapsible=1;marginBottom=0;whiteSpace=wrap;html=1;fillColor=#647687;fontColor=#ffffff;strokeColor=#314354;" vertex="1" parent="1">
          <mxGeometry x="330" y="290" width="160" height="50" as="geometry" />
        </mxCell>
        <mxCell id="0qIQiITKptPGIWKbQqsH-5" value="" style="line;strokeWidth=1;fillColor=none;align=left;verticalAlign=middle;spacingTop=-1;spacingLeft=3;spacingRight=3;rotatable=0;labelPosition=right;points=[];portConstraint=eastwest;strokeColor=inherit;" vertex="1" parent="0qIQiITKptPGIWKbQqsH-3">
          <mxGeometry y="26" width="160" height="24" as="geometry" />
        </mxCell>
        <mxCell id="0qIQiITKptPGIWKbQqsH-13" value="" style="html=1;verticalAlign=bottom;endArrow=block;curved=0;rounded=0;" edge="1" parent="1" source="0qIQiITKptPGIWKbQqsH-3" target="0qIQiITKptPGIWKbQqsH-16">
          <mxGeometry width="80" relative="1" as="geometry">
            <mxPoint x="370" y="320" as="sourcePoint" />
            <mxPoint x="161.51999999999998" y="427.79999999999995" as="targetPoint" />
          </mxGeometry>
        </mxCell>
        <mxCell id="0qIQiITKptPGIWKbQqsH-14" value="" style="html=1;verticalAlign=bottom;endArrow=block;curved=0;rounded=0;" edge="1" parent="1" source="0qIQiITKptPGIWKbQqsH-3" target="0qIQiITKptPGIWKbQqsH-20">
          <mxGeometry width="80" relative="1" as="geometry">
            <mxPoint x="360" y="390" as="sourcePoint" />
            <mxPoint x="410" y="430" as="targetPoint" />
          </mxGeometry>
        </mxCell>
        <mxCell id="0qIQiITKptPGIWKbQqsH-15" value="" style="html=1;verticalAlign=bottom;endArrow=block;curved=0;rounded=0;" edge="1" parent="1" source="0qIQiITKptPGIWKbQqsH-3" target="0qIQiITKptPGIWKbQqsH-24">
          <mxGeometry width="80" relative="1" as="geometry">
            <mxPoint x="510" y="390" as="sourcePoint" />
            <mxPoint x="650" y="430" as="targetPoint" />
          </mxGeometry>
        </mxCell>
        <mxCell id="0qIQiITKptPGIWKbQqsH-16" value="&lt;span style=&quot;color: rgb(19, 19, 0); font-family: &amp;quot;trebuchet ms&amp;quot;, verdana, arial, sans-serif; font-size: 16px; text-align: start; text-wrap: nowrap; background-color: rgb(255, 255, 255);&quot;&gt;ReprodutorMusical&lt;/span&gt;" style="swimlane;fontStyle=1;align=center;verticalAlign=top;childLayout=stackLayout;horizontal=1;startSize=26;horizontalStack=0;resizeParent=1;resizeParentMax=0;resizeLast=0;collapsible=1;marginBottom=0;whiteSpace=wrap;html=1;fillColor=#dae8fc;strokeColor=#6c8ebf;" vertex="1" parent="1">
          <mxGeometry x="60" y="435" width="200" height="134" as="geometry" />
        </mxCell>
        <mxCell id="0qIQiITKptPGIWKbQqsH-18" value="" style="line;strokeWidth=1;fillColor=none;align=left;verticalAlign=middle;spacingTop=-1;spacingLeft=3;spacingRight=3;rotatable=0;labelPosition=right;points=[];portConstraint=eastwest;strokeColor=inherit;" vertex="1" parent="0qIQiITKptPGIWKbQqsH-16">
          <mxGeometry y="26" width="200" height="24" as="geometry" />
        </mxCell>
        <mxCell id="0qIQiITKptPGIWKbQqsH-19" value="&lt;div&gt;&lt;div&gt;&lt;font face=&quot;ui-monospace, SFMono-Regular, SF Mono, Menlo, Consolas, Liberation Mono, monospace&quot; color=&quot;#1f2328&quot;&gt;&lt;span style=&quot;font-size: 13.6px; white-space-collapse: break-spaces;&quot;&gt;+tocar()&lt;/span&gt;&lt;/font&gt;&lt;/div&gt;&lt;div&gt;&lt;font face=&quot;ui-monospace, SFMono-Regular, SF Mono, Menlo, Consolas, Liberation Mono, monospace&quot; color=&quot;#1f2328&quot;&gt;&lt;span style=&quot;font-size: 13.6px; white-space-collapse: break-spaces;&quot;&gt;+pausar()&lt;/span&gt;&lt;/font&gt;&lt;/div&gt;&lt;div&gt;&lt;font face=&quot;ui-monospace, SFMono-Regular, SF Mono, Menlo, Consolas, Liberation Mono, monospace&quot; color=&quot;#1f2328&quot;&gt;&lt;span style=&quot;font-size: 13.6px; white-space-collapse: break-spaces;&quot;&gt;+selecionarMusica(String musica)&lt;/span&gt;&lt;/font&gt;&lt;/div&gt;&lt;div&gt;&lt;/div&gt;&lt;/div&gt;" style="text;strokeColor=none;fillColor=none;align=left;verticalAlign=top;spacingLeft=4;spacingRight=4;overflow=hidden;rotatable=0;points=[[0,0.5],[1,0.5]];portConstraint=eastwest;whiteSpace=wrap;html=1;" vertex="1" parent="0qIQiITKptPGIWKbQqsH-16">
          <mxGeometry y="50" width="200" height="84" as="geometry" />
        </mxCell>
        <mxCell id="0qIQiITKptPGIWKbQqsH-20" value="&lt;span style=&quot;color: rgb(19, 19, 0); font-family: &amp;quot;trebuchet ms&amp;quot;, verdana, arial, sans-serif; font-size: 16px; text-align: start; text-wrap: nowrap; background-color: rgb(255, 255, 255);&quot;&gt;AparelhoTelefonico&lt;/span&gt;" style="swimlane;fontStyle=1;align=center;verticalAlign=top;childLayout=stackLayout;horizontal=1;startSize=26;horizontalStack=0;resizeParent=1;resizeParentMax=0;resizeLast=0;collapsible=1;marginBottom=0;whiteSpace=wrap;html=1;fillColor=#d5e8d4;strokeColor=#82b366;" vertex="1" parent="1">
          <mxGeometry x="310" y="435" width="200" height="140" as="geometry" />
        </mxCell>
        <mxCell id="0qIQiITKptPGIWKbQqsH-22" value="" style="line;strokeWidth=1;fillColor=none;align=left;verticalAlign=middle;spacingTop=-1;spacingLeft=3;spacingRight=3;rotatable=0;labelPosition=right;points=[];portConstraint=eastwest;strokeColor=inherit;" vertex="1" parent="0qIQiITKptPGIWKbQqsH-20">
          <mxGeometry y="26" width="200" height="24" as="geometry" />
        </mxCell>
        <mxCell id="0qIQiITKptPGIWKbQqsH-23" value="+ligar(String numero)&lt;div&gt;+atender()&lt;/div&gt;&lt;div&gt;+iniciarCorreioVoz()&lt;br&gt;&lt;div&gt;&lt;/div&gt;&lt;/div&gt;" style="text;strokeColor=none;fillColor=none;align=left;verticalAlign=top;spacingLeft=4;spacingRight=4;overflow=hidden;rotatable=0;points=[[0,0.5],[1,0.5]];portConstraint=eastwest;whiteSpace=wrap;html=1;" vertex="1" parent="0qIQiITKptPGIWKbQqsH-20">
          <mxGeometry y="50" width="200" height="90" as="geometry" />
        </mxCell>
        <mxCell id="0qIQiITKptPGIWKbQqsH-28" style="edgeStyle=orthogonalEdgeStyle;rounded=0;orthogonalLoop=1;jettySize=auto;html=1;fillColor=#f5f5f5;strokeColor=#666666;" edge="1" parent="1" source="0qIQiITKptPGIWKbQqsH-24">
          <mxGeometry relative="1" as="geometry">
            <mxPoint x="660" y="410" as="targetPoint" />
          </mxGeometry>
        </mxCell>
        <mxCell id="0qIQiITKptPGIWKbQqsH-24" value="&lt;span style=&quot;color: rgb(19, 19, 0); font-family: &amp;quot;trebuchet ms&amp;quot;, verdana, arial, sans-serif; font-size: 16px; text-align: start; text-wrap: nowrap; background-color: rgb(255, 255, 255);&quot;&gt;NavegadorInternet&lt;/span&gt;" style="swimlane;fontStyle=1;align=center;verticalAlign=top;childLayout=stackLayout;horizontal=1;startSize=26;horizontalStack=0;resizeParent=1;resizeParentMax=0;resizeLast=0;collapsible=1;marginBottom=0;whiteSpace=wrap;html=1;fillColor=#fff2cc;strokeColor=#d6b656;" vertex="1" parent="1">
          <mxGeometry x="560" y="435" width="200" height="140" as="geometry" />
        </mxCell>
        <mxCell id="0qIQiITKptPGIWKbQqsH-26" value="" style="line;strokeWidth=1;fillColor=none;align=left;verticalAlign=middle;spacingTop=-1;spacingLeft=3;spacingRight=3;rotatable=0;labelPosition=right;points=[];portConstraint=eastwest;strokeColor=inherit;" vertex="1" parent="0qIQiITKptPGIWKbQqsH-24">
          <mxGeometry y="26" width="200" height="24" as="geometry" />
        </mxCell>
        <mxCell id="0qIQiITKptPGIWKbQqsH-27" value="+exibirPagina(String url), +adicionarNovaAba(), +atualizarPagina()&lt;br&gt;&lt;div&gt;&lt;/div&gt;" style="text;strokeColor=none;fillColor=none;align=left;verticalAlign=top;spacingLeft=4;spacingRight=4;overflow=hidden;rotatable=0;points=[[0,0.5],[1,0.5]];portConstraint=eastwest;whiteSpace=wrap;html=1;" vertex="1" parent="0qIQiITKptPGIWKbQqsH-24">
          <mxGeometry y="50" width="200" height="90" as="geometry" />
        </mxCell>
      </root>
    </mxGraphModel>
  </diagram>
</mxfile>
